<svg width="111" height="111" viewBox="0 0 111 111" fill="none" xmlns="http://www.w3.org/2000/svg">
<path d="M0 12.3333V98.6667C0 105.45 5.48833 111 12.3333 111H98.6667C105.45 111 111 105.45 111 98.6667V12.3333C111 5.55 105.45 0 98.6667 0H12.3333C5.48833 0 0 5.55 0 12.3333ZM74 37C74 47.2367 65.7367 55.5 55.5 55.5C45.2633 55.5 37 47.2367 37 37C37 26.7633 45.2633 18.5 55.5 18.5C65.7367 18.5 74 26.7633 74 37ZM18.5 86.3333C18.5 74 43.1667 67.2167 55.5 67.2167C67.8333 67.2167 92.5 74 92.5 86.3333V92.5H18.5V86.3333Z" fill="#090B2D"/>
</svg>
